# xmcd
#
# Track frame offsets:
#	150
#	20852
#	46234
#	69866
#	92507
#	116851
#	138395
#	160703
#	182431
#	203839
#
# Disc length: 3018 seconds
#
# Revision: 9371777
# Processed by: cddbd v1.5.2PL0 Copyright (c) Steve Scherf et al.
# Submitted via: EZCDAudioConverter 8.0.2.1
#
DISCID=800bc80a
DTITLE=Ngọc Sơn - st. Ngọc Sơn. Tình Dại Khờ
DYEAR=2002
DGENRE=
TTITLE0=Tình Dại Khờ
TTITLE1=Tình cha
TTITLE2=Tình mẹ
TTITLE3=Yêu dân tộc Việt Nam
TTITLE4=Lòng mẹ
TTITLE5=Đêm cuối
TTITLE6=Giận hờn 1
TTITLE7=Đêm buồn phố thị
TTITLE8=Giận hờn 2
TTITLE9=Những đêm lạnh
EXTD=
EXTT0=
EXTT1=
EXTT2=
EXTT3=
EXTT4=
EXTT5=
EXTT6=
EXTT7=
EXTT8=
EXTT9=
PLAYORDER=
